HIERARCHY
ROOT locator2
{
  OFFSET 53.6172 30.1899 0.816905
  CHANNELS 6 Xposition Yposition Zposition Zrotation Xrotation Yrotation
  JOINT koshi
  {
    OFFSET 0 0 0
    CHANNELS 6 Xposition Yposition Zposition Zrotation Xrotation Yrotation
    JOINT sippo01
    {
      OFFSET 0 42.8363 -0.548134
      CHANNELS 6 Xposition Yposition Zposition Zrotation Xrotation Yrotation
      JOINT sippo02
      {
        OFFSET 0 44.0461 -3.28882
        CHANNELS 6 Xposition Yposition Zposition Zrotation Xrotation Yrotation
        JOINT sippo03
        {
          OFFSET 0 34.1929 -2.46662
          CHANNELS 6 Xposition Yposition Zposition Zrotation Xrotation Yrotation
          JOINT sippo04
          {
            OFFSET 0 30.0959 -1.75404
            CHANNELS 6 Xposition Yposition Zposition Zrotation Xrotation Yrotation
            JOINT sippo05
            {
              OFFSET 0 28.3637 -1.75404
              CHANNELS 6 Xposition Yposition Zposition Zrotation Xrotation Yrotation
              JOINT sippo06
              {
                OFFSET 0 31.6071 -3.2043
                CHANNELS 6 Xposition Yposition Zposition Zrotation Xrotation Yrotation
                End Site
                {
                  OFFSET 0 0 0
                }
              }
            }
          }
        }
      }
    }
    JOINT R_momo
    {
      OFFSET -27.891 13.5892 3.92723
      CHANNELS 6 Xposition Yposition Zposition Zrotation Xrotation Yrotation
      JOINT R_hiza
      {
        OFFSET 0 28.01 1.8232
        CHANNELS 6 Xposition Yposition Zposition Zrotation Xrotation Yrotation
        JOINT R_ashi
        {
          OFFSET 0 24.3992 -2.49174
          CHANNELS 6 Xposition Yposition Zposition Zrotation Xrotation Yrotation
          End Site
          {
            OFFSET 0 0 0
          }
        }
      }
    }
    JOINT L_momo
    {
      OFFSET 27.891 13.5892 3.92714
      CHANNELS 6 Xposition Yposition Zposition Zrotation Xrotation Yrotation
      JOINT L_hiza
      {
        OFFSET 0 28.0098 1.82319
        CHANNELS 6 Xposition Yposition Zposition Zrotation Xrotation Yrotation
        JOINT L_ashi
        {
          OFFSET 0 24.3992 -2.49171
          CHANNELS 6 Xposition Yposition Zposition Zrotation Xrotation Yrotation
          End Site
          {
            OFFSET 0 0 0
          }
        }
      }
    }
  }
  JOINT hara
  {
    OFFSET 0 2.15392 0
    CHANNELS 6 Xposition Yposition Zposition Zrotation Xrotation Yrotation
    JOINT mune
    {
      OFFSET 0 62.0609 0.472494
      CHANNELS 6 Xposition Yposition Zposition Zrotation Xrotation Yrotation
      JOINT R_kata
      {
        OFFSET 22.6695 9.65301 -5.3622
        CHANNELS 6 Xposition Yposition Zposition Zrotation Xrotation Yrotation
        JOINT R_hiji
        {
          OFFSET 0 25.813 1.69098
          CHANNELS 6 Xposition Yposition Zposition Zrotation Xrotation Yrotation
          JOINT R_te
          {
            OFFSET 0 28.5636 -0.966307
            CHANNELS 6 Xposition Yposition Zposition Zrotation Xrotation Yrotation
            End Site
            {
              OFFSET 0 0 0
            }
          }
        }
      }
      JOINT L_kata
      {
        OFFSET -22.6695 9.65298 -5.3622
        CHANNELS 6 Xposition Yposition Zposition Zrotation Xrotation Yrotation
        JOINT L_hiji
        {
          OFFSET 0 25.813 1.69102
          CHANNELS 6 Xposition Yposition Zposition Zrotation Xrotation Yrotation
          JOINT L_te
          {
            OFFSET 0 28.5636 -0.966295
            CHANNELS 6 Xposition Yposition Zposition Zrotation Xrotation Yrotation
            End Site
            {
              OFFSET 0 0 0
            }
          }
        }
      }
      JOINT kubi
      {
        OFFSET 0 23.1438 -0.944988
        CHANNELS 6 Xposition Yposition Zposition Zrotation Xrotation Yrotation
        JOINT atama
        {
          OFFSET 0 20.8625 4.12737
          CHANNELS 6 Xposition Yposition Zposition Zrotation Xrotation Yrotation
          JOINT ago
          {
            OFFSET 0 7.552 -7.58201
            CHANNELS 6 Xposition Yposition Zposition Zrotation Xrotation Yrotation
            End Site
            {
              OFFSET 0 0 0
            }
          }
        }
      }
    }
  }
}
MOTION
Frames:	8
Frame Time:	0.0333333
0 30.0536 0.0017919 -90 -3.50835e-015 -90 0 0 0 -171.514 3.11652 0.330168 -5.06639e-007 42.8363 -0.54814 2.96661 -15.9213 3.73737 4.17233e-007 44.0461 -3.28881 5.40177 9.40675 -5.26513 6.67572e-006 34.1929 -2.46661 6.42636 1.07533 -1.69209 -1.90735e-006 30.0959 -1.75404 6.02464 9.41327 -0.736219 7.10543e-015 28.3637 -1.75404 9.41463 -5.88909 5.77579 -7.62939e-006 31.6072 -3.2043 5.20815 -6.15552 -5.44963 -27.891 13.5892 3.92723 104.486 -35.38 -52.7499 -3.8147e-006 28.01 1.8232 13.9626 -85.2133 2.54127 7.10543e-015 24.3992 -2.49173 -153.451 46.2498 -164.035 27.891 13.5892 3.92714 -84.2389 -26.4697 75.4384 7.62939e-006 28.0098 1.82319 -3.33301 -55.8793 15.8727 -7.10543e-015 24.3992 -2.49172 134.535 70.0189 167.281 6.07804e-007 2.15392 3.55271e-015 -0.704689 -3.15782 0.272105 1.78814e-007 62.0609 0.472494 1.52529e-008 1.0037e-005 -5.18477e-009 22.6695 9.65298 -5.36221 -133.557 29.8535 31.1217 -7.6294e-006 25.813 1.69098 -179.748 -62.282 -176.31 7.6294e-006 28.5636 -0.966312 49.6413 8.64931 -78.3254 -22.6695 9.65297 -5.3622 152.289 3.03776 -41.6224 -3.8147e-006 25.813 1.69102 -179.821 -72.5273 -178.243 1.14441e-005 28.5636 -0.966295 -50.798 14.3015 101.394 1.49012e-007 23.1438 -0.94499 0.314307 -1.84426 -0.19719 8.9407e-008 20.8625 4.12738 0.208439 -1.89197 -0.192852 -5.96046e-008 7.55204 -7.58201 -1.00358e-005 2.70265 4.7224e-007 
1.94673 29.7046 0.187298 -90 -3.50835e-015 -90 0 0 0 -171.94 2.79651 0.333137 -5.06639e-007 42.8363 -0.54814 2.55888 -15.6162 3.87666 3.4996e-007 44.0461 -3.28881 4.90816 9.59251 -4.76484 6.55444e-006 34.1929 -2.46661 6.84347 1.40332 -1.37307 -1.9061e-006 30.0959 -1.75404 6.60532 9.76291 -1.06192 2.37085e-007 28.3637 -1.75404 9.68424 -5.78497 5.75431 -7.25609e-006 31.6072 -3.2043 5.50339 -5.83416 -5.67252 -27.891 13.5892 3.92723 100.843 -35.9685 -55.3797 -3.75865e-006 28.01 1.8232 15.1675 -84.2859 1.35882 9.13751e-008 24.3992 -2.49173 -154.275 44.115 -163.659 27.891 13.5892 3.92714 -84.6421 -25.8946 74.6 7.58417e-006 28.0098 1.82319 -3.41815 -56.4599 15.5868 -5.09294e-008 24.3992 -2.49172 132.675 71.7277 169.005 0.00659163 2.14733 3.6454e-010 -1.04871 -2.79275 -0.0568261 1.78814e-007 62.0609 0.472494 1.52536e-008 1.0037e-005 -5.18496e-009 22.6695 9.65298 -5.36221 -133.324 28.9314 33.3709 -7.62866e-006 25.813 1.69098 -179.793 -62.7681 -176.213 7.79629e-006 28.5636 -0.966312 46.2732 9.66036 -78.9378 -22.6695 9.65297 -5.3622 154.295 3.78435 -41.2066 -3.85951e-006 25.813 1.69102 -179.801 -74.8334 -178.422 1.16739e-005 28.5636 -0.966295 -50.9151 10.5032 98.9371 1.49012e-007 23.1438 -0.94499 -0.138387 -1.37032 0.182825 1.29854e-007 20.8625 4.12738 0.0291378 -1.30396 0.239023 -1.2031e-008 7.55204 -7.58201 -9.85155e-006 1.69171 -1.70085e-005 
3.85566 28.7754 0.369202 -90 -3.50835e-015 -90 0 0 0 -173.246 2.48424 0.369297 -5.06639e-007 42.8363 -0.54814 2.14953 -14.244 3.97573 2.83908e-007 44.0461 -3.28881 4.42346 9.77425 -4.271 6.43425e-006 34.1929 -2.46661 7.64065 3.03514 -0.264001 -1.80807e-006 30.0959 -1.75404 8.01278 10.086 -1.53542 8.98235e-007 28.3637 -1.75404 10.2726 -5.48712 5.71752 -6.36812e-006 31.6072 -3.2043 5.88166 -4.76541 -6.1244 -27.891 13.5892 3.92723 98.3391 -34.3997 -57.0697 -3.65881e-006 28.01 1.8232 20.7613 -84.8472 2.76038 2.01498e-007 24.3992 -2.49173 -154.939 42.1372 -164.783 27.891 13.5892 3.92714 -85.4237 -23.5224 73.6207 7.41173e-006 28.0098 1.82319 -3.64184 -58.411 14.9685 -1.8052e-007 24.3992 -2.49173 130.446 73.3817 169.969 0.0130547 2.14087 7.06038e-010 -1.3847 -1.75006 -0.361228 1.78813e-007 62.0609 0.472494 1.52538e-008 1.0037e-005 -5.18484e-009 22.6695 9.65298 -5.36221 -130.151 26.6864 37.3534 -7.52049e-006 25.813 1.69098 -179.839 -63.2463 -176.12 8.21607e-006 28.5636 -0.966312 36.7762 14.0482 -81.9264 -22.6695 9.65297 -5.3622 156.261 4.53455 -40.8477 -3.91177e-006 25.813 1.69102 -179.737 -78.9811 -178.554 1.19733e-005 28.5636 -0.966295 -50.4061 6.35306 96.4897 1.49012e-007 23.1438 -0.94499 -0.873952 0.0869215 1.44302 1.93022e-007 20.8625 4.12737 -0.485925 0.173362 1.77411 1.22943e-007 7.55204 -7.58201 -1.00345e-005 -2.53073 -4.43473e-007 
5.78349 27.8624 0.552907 -90 -3.50835e-015 -90 0 0 0 -174.561 2.16724 0.391673 -5.06639e-007 42.8363 -0.54814 1.74271 -12.8574 4.09625 2.17214e-007 44.0461 -3.28881 3.93495 9.95681 -3.58895 6.31387e-006 34.1929 -2.46661 8.45486 4.67687 0.811279 -1.71006e-006 30.0959 -1.75404 8.76019 11.0413 -2.00146 1.20032e-006 28.3637 -1.75404 10.6556 -4.51507 5.52223 -5.87947e-006 31.6072 -3.2043 6.16345 -3.07145 -6.94396 -27.891 13.5892 3.92723 95.684 -31.8542 -58.1752 -3.48284e-006 28.01 1.8232 27.7159 -85.3522 4.47113 3.19927e-007 24.3992 -2.49173 -156.964 40.4425 -165.056 27.891 13.5892 3.92714 -86.1431 -21.1139 72.6789 7.2221e-006 28.0098 1.82319 -3.89835 -60.3792 14.3136 -3.15577e-007 24.3992 -2.49173 127.66 75.0203 171.454 0.0195817 2.13434 1.06245e-009 -1.7243 -0.696563 -0.654767 1.78813e-007 62.0609 0.472494 1.52533e-008 1.0037e-005 -5.18496e-009 22.6695 9.65298 -5.36221 -128.213 22.2957 46.6189 -7.28856e-006 25.813 1.69098 -179.888 -63.7306 -176.027 8.70289e-006 28.5636 -0.966312 21.1798 19.6031 -81.7117 -22.6695 9.65297 -5.3622 158.246 5.30779 -41.2868 -3.98537e-006 25.813 1.69102 -179.593 -83.1702 -178.606 1.22628e-005 28.5636 -0.966295 -49.6067 1.96117 93.9833 1.49012e-007 23.1438 -0.94499 -2.36112 2.56504 3.45019 3.06431e-007 20.8625 4.12737 -1.18141 2.69925 4.08208 3.15478e-007 7.55204 -7.58201 -1.01644e-005 -9.5081 -1.67926e-006 
7.73021 27.8917 0.738413 -90 -3.50835e-015 -90 0 0 0 -175.015 1.51181 0.399742 -5.06639e-007 42.8363 -0.54814 1.33689 -11.4541 4.23856 1.49743e-007 44.0461 -3.28881 3.43936 10.1428 -2.89472 6.19105e-006 34.1929 -2.46661 7.81227 6.35068 2.00743 -1.95432e-006 30.0959 -1.75404 8.22465 12.043 -2.22825 6.31854e-007 28.3637 -1.75404 10.4996 -2.84358 5.15547 -6.34837e-006 31.6072 -3.20431 6.25237 -1.20884 -8.03273 -27.891 13.5892 3.92723 90.8871 -32.4025 -59.4435 -3.32604e-006 28.01 1.8232 21.2138 -83.0844 -5.33487 3.68006e-007 24.3992 -2.49173 -158.218 40.7148 -166.521 27.891 13.5892 3.92714 -87.3883 -18.0182 70.5268 6.95919e-006 28.0098 1.82319 -4.09575 -61.6283 15.1211 -2.96873e-007 24.3992 -2.49173 110.368 80.9024 -171.3 0.0261727 2.12775 1.36314e-009 -2.06771 -0.626185 -1.11333 1.78814e-007 62.0609 0.472494 1.52532e-008 1.0037e-005 -5.18506e-009 22.6695 9.65298 -5.36221 -126.013 18.0786 53.4407 -6.96811e-006 25.813 1.69098 -179.938 -64.3883 -175.94 8.81423e-006 28.5636 -0.966313 4.16197 24.4655 -78.6327 -22.6695 9.65297 -5.3622 160.291 4.4729 -42.3677 -4.17156e-006 25.813 1.69102 -178.962 -87.4107 -178.175 1.25203e-005 28.5636 -0.966296 -48.8867 -2.29216 91.4233 1.49012e-007 23.1438 -0.94499 -4.17926 5.70951 5.93591 4.18057e-007 20.8625 4.12737 -2.24234 5.94534 6.95944 5.15182e-007 7.55204 -7.58201 -1.76298e-006 -14.5836 -4.11915e-007 
9.63914 28.2672 0.920317 -90 -3.50835e-015 -90 0 0 0 -175.459 0.868207 0.398037 -5.06639e-007 42.8363 -0.54814 0.943796 -10.0378 4.39679 8.362e-008 44.0461 -3.28881 2.95558 10.4793 -2.22093 6.06845e-006 34.1929 -2.46661 7.18435 7.99577 2.81248 -2.20637e-006 30.0959 -1.75404 7.6977 13.0261 -2.43213 4.90986e-008 28.3637 -1.75404 10.1591 0.312493 4.52831 -7.02421e-006 31.6072 -3.20431 6.15497 0.617093 -9.15827 -27.891 13.5892 3.92723 86.1146 -32.3181 -60.732 -3.12114e-006 28.01 1.8232 18.0235 -80.8164 -11.7784 3.61853e-007 24.3992 -2.49173 -159.457 40.9689 -166.197 27.891 13.5892 3.92714 -88.366 -14.9275 68.5197 6.68007e-006 28.0098 1.82319 -4.30655 -62.8529 15.8955 -2.91274e-007 24.3992 -2.49173 62.3713 84.0109 -123.692 0.0326358 2.12128 1.7088e-009 -2.50582 -0.556967 -1.56598 1.78814e-007 62.0609 0.472494 1.52532e-008 1.0037e-005 -5.18502e-009 22.6695 9.65298 -5.36221 -121.202 10.1434 64.4761 -6.21776e-006 25.813 1.69098 -179.989 -65.0344 -176.276 8.38793e-006 28.5636 -0.966313 -14.0249 30.9077 -72.1727 -22.6695 9.65297 -5.3622 160.787 3.59531 -43.2723 -4.2716e-006 25.813 1.69102 -0.984567 -87.3798 -0.392434 1.27199e-005 28.5636 -0.966297 -48.5321 -6.25318 88.8122 1.49012e-007 23.1438 -0.94499 -6.14615 8.95002 8.23689 5.12898e-007 20.8625 4.12737 -3.30788 9.45855 9.64225 6.44979e-007 7.55204 -7.58201 -1.94983e-006 -18.2302 8.90355e-006 
11.5475 28.6509 1.01129 -90 -3.50835e-015 -90 0 0 0 -175.907 0.215216 0.385464 -5.06639e-007 42.8363 -0.54814 0.550842 -8.60686 4.57663 1.68426e-008 44.0461 -3.28881 2.13555 10.8222 -1.47067 5.89809e-006 34.1929 -2.46661 6.54557 9.36844 3.69689 -2.50232e-006 30.0959 -1.75404 6.81773 14.0296 -3.01066 -8.00381e-007 28.3637 -1.75404 9.60091 5.06139 3.69753 -8.24878e-006 31.6072 -3.20431 5.93328 2.69355 -10.3626 -27.891 13.5892 3.92723 81.9473 -31.734 -62.5365 -2.92603e-006 28.01 1.8232 14.3577 -77.1317 -18.7835 8.10959e-008 24.3992 -2.49173 -159.818 41.0521 -166.451 27.891 13.5892 3.92714 -89.0292 -13.6435 66.6236 6.56095e-006 28.0098 1.82319 -4.32656 -63.3142 16.8746 -2.4482e-007 24.3992 -2.49173 44.7938 83.3959 -106.815 0.0391628 2.11476 2.14257e-009 -2.94615 -0.487188 -2.01942 1.78813e-007 62.0609 0.472494 1.52535e-008 1.0037e-005 -5.18485e-009 22.6695 9.65298 -5.36221 -115.222 3.84533 66.1585 -5.82361e-006 25.813 1.69098 179.956 -65.6865 -176.619 8.15159e-006 28.5636 -0.966313 -20.1501 37.1392 -69.5821 -22.6695 9.65297 -5.3622 161.282 2.70313 -44.1705 -4.37579e-006 25.813 1.69102 -0.31587 -82.1199 0.0793959 1.28956e-005 28.5636 -0.966299 -48.8005 -9.9246 86.0292 1.49012e-007 23.1438 -0.94499 -7.71345 11.5636 9.33981 5.79801e-007 20.8625 4.12737 -4.40379 12.1948 11.0163 6.95392e-007 7.55204 -7.58201 -1.07203e-005 -20.7497 -3.79756e-006 
13.4745 29.0384 1.10316 -90 -3.50835e-015 -90 0 0 0 -176.093 -0.442515 0.365151 -5.06639e-007 42.8363 -0.54814 0.231533 -7.16208 4.78756 -3.71312e-008 44.0461 -3.28881 1.30639 11.1661 -0.704137 5.73597e-006 34.1929 -2.46661 5.20259 10.7694 4.75181 -2.9594e-006 30.0959 -1.75404 5.9063 14.4255 -3.49671 -1.78714e-006 28.3637 -1.75404 9.00894 9.18535 3.09063 -9.71695e-006 31.6072 -3.20431 5.65595 5.56275 -11.6319 -27.891 13.5892 3.92723 77.8968 -30.6606 -64.218 -2.70035e-006 28.01 1.8232 11.5651 -73.4269 -23.3491 -2.50952e-007 24.3992 -2.49173 -159.832 42.2253 -167.238 27.891 13.5892 3.92714 -89.6023 -12.3345 64.72 6.43873e-006 28.0098 1.82319 -4.34767 -63.7798 17.6517 -2.14329e-007 24.3992 -2.49173 31.2379 82.2976 -90.9051 0.0457538 2.10817 2.41186e-009 -3.39369 -0.576449 -2.48866 1.78813e-007 62.0609 0.472494 1.52533e-008 1.0037e-005 -5.18496e-009 22.6695 9.65298 -5.36221 -107.602 -1.69467 62.6212 -5.61777e-006 25.813 1.69098 179.902 -65.4643 -176.976 8.35645e-006 28.5636 -0.966313 -9.12206 45.7997 -73.7436 -22.6695 9.65297 -5.3622 161.76 2.17845 -43.7211 -4.43115e-006 25.813 1.69102 -0.183637 -76.808 0.00907105 1.30599e-005 28.5636 -0.966301 -49.9867 -13.0944 82.8527 1.49012e-007 23.1438 -0.94499 -8.52024 13.0924 8.56415 6.32394e-007 20.8625 4.12738 -4.97042 13.7925 10.4049 6.91113e-007 7.55204 -7.58201 -6.72591e-006 -22.3117 6.71341e-006 
